<?xml version="1.0" encoding="utf-8"?>
<!-- Generator: Adobe Illustrator 24.3.0, SVG Export Plug-In . SVG Version: 6.00 Build 0)  -->
<svg version="1.1" id="Layer_1" xmlns="http://www.w3.org/2000/svg" xmlns:xlink="http://www.w3.org/1999/xlink" x="0px" y="0px"
	 viewBox="0 0 361 264.1" style="enable-background:new 0 0 361 264.1;" xml:space="preserve">
<style type="text/css">
	.st0{fill:url(#SVGID_1_);}
	.st1{fill:url(#SVGID_2_);}
	.st2{fill:none;}
	.st3{fill:#231F20;}
	.st4{fill:none;stroke:#000000;stroke-width:0.5;stroke-miterlimit:10;}
	.st5{fill:#FFFFFF;stroke:#000000;stroke-width:0.5;stroke-miterlimit:10;}
</style>
<linearGradient id="SVGID_1_" gradientUnits="userSpaceOnUse" x1="391.0709" y1="26.0986" x2="250.6854" y2="26.0986" gradientTransform="matrix(-1 0 0 1 342.1609 0)">
	<stop  offset="0" style="stop-color:#FFFFFF"/>
	<stop  offset="0.1382" style="stop-color:#FFFEFB"/>
	<stop  offset="0.2777" style="stop-color:#FEFBEF"/>
	<stop  offset="0.418" style="stop-color:#FCF7DB"/>
	<stop  offset="0.5587" style="stop-color:#FAF0BE"/>
	<stop  offset="0.6999" style="stop-color:#F8E89A"/>
	<stop  offset="0.8416" style="stop-color:#F4DE6D"/>
	<stop  offset="0.981" style="stop-color:#F1D239"/>
	<stop  offset="1" style="stop-color:#F0D031"/>
</linearGradient>
<polygon class="st0" points="91.5,23.1 0,14.6 0,37.5 91.5,32.3 "/>
<linearGradient id="SVGID_2_" gradientUnits="userSpaceOnUse" x1="116.4445" y1="26.0986" x2="-23.941" y2="26.0986" gradientTransform="matrix(1 0 0 1 115.4164 0)">
	<stop  offset="0" style="stop-color:#FFFFFF"/>
	<stop  offset="0.1382" style="stop-color:#FFFEFB"/>
	<stop  offset="0.2777" style="stop-color:#FEFBEF"/>
	<stop  offset="0.418" style="stop-color:#FCF7DB"/>
	<stop  offset="0.5587" style="stop-color:#FAF0BE"/>
	<stop  offset="0.6999" style="stop-color:#F8E89A"/>
	<stop  offset="0.8416" style="stop-color:#F4DE6D"/>
	<stop  offset="0.981" style="stop-color:#F1D239"/>
	<stop  offset="1" style="stop-color:#F0D031"/>
</linearGradient>
<polygon class="st1" points="91.5,23.1 183,14.6 183,37.5 91.5,32.3 "/>
<path class="st2" d="M139.8,101.3c1-0.5,1.7-1.2,2.2-2.1c0.5-0.9,0.8-2,0.9-3.2c0.1-1.2,0.2-2.6,0.2-4c0-1.5-0.1-2.8-0.3-3.9
	c-0.2-1.1-0.5-2.1-1-2.8c-0.6-0.8-1.3-1.4-2.3-1.7c-0.9-0.4-2.2-0.5-3.8-0.5h-3.8v19.1h3.7C137.5,102.1,138.8,101.8,139.8,101.3z"/>
<path class="st2" d="M269.2,101.1c1.1-1,1.7-2.5,1.7-4.6V65.1c0-2.1-0.6-3.6-1.7-4.6c-1.1-1-2.5-1.5-4.1-1.5c-1.6,0-2.9,0.5-4.1,1.5
	c-1.1,1-1.7,2.5-1.7,4.6v31.4c0,2.1,0.6,3.6,1.7,4.6c1.1,1,2.5,1.5,4.1,1.5C266.7,102.6,268,102.1,269.2,101.1z"/>
<path class="st2" d="M153.3,149.1c-1.1-1.6-3.1-2.3-6-2.3h-4.4v18.6h4.8c1.5,0,2.7-0.2,3.6-0.6c0.9-0.4,1.6-1,2.1-1.8
	c0.4-0.8,0.8-1.7,0.9-2.9c0.2-1.1,0.3-2.5,0.3-4s-0.1-2.8-0.3-4C154.2,150.9,153.8,149.9,153.3,149.1z"/>
<path class="st2" d="M141.7,73.4c1-1.4,1.5-3.5,1.5-6.2c0-2.7-0.5-4.7-1.6-6c-1.1-1.3-3.1-2-5.9-2h-3.5v16.4h3.8
	C138.8,75.5,140.7,74.8,141.7,73.4z"/>
<path class="st3" d="M0,195.6h7.8v-9.9c0,0,6.2-30.9,14.9,0v9.9h7.8L23.4,135H6.2L0,195.6z M11.7,156.9c0,0,2.9-14.7,7.1,0v4.7h-7.1
	V156.9z"/>
<path class="st3" d="M259.3,198.8h7.8v-9.9c0,0,6.2-30.9,14.9,0v9.9h7.8l-7.1-60.6h-17.2L259.3,198.8z M271,159.4
	c0,0,2.9-14.7,7.1,0v4.7H271V159.4z"/>
<path class="st3" d="M173.6,100.7c0,0,6.2-30.9,14.9,0v9.9h7.8L189.2,50H172l-6.2,60.6h7.8V100.7z M177.5,70.8c0,0,2.9-14.7,7.1,0
	v4.7h-7.1V70.8z"/>
<path d="M147.3,106.4c2.5-2.8,3.8-6.8,3.8-12V91c0-3.2-0.5-5.7-1.4-7.5c-0.9-1.8-2.4-3.2-4.4-4.2c2-1.1,3.4-2.5,4.3-4
	c0.5-0.8,0.9-1.8,1.1-2.9c0.3-1.1,0.4-2.5,0.4-4.1v-2.2c0-2-0.3-3.8-0.8-5.6c-0.5-1.8-1.4-3.4-2.6-4.8c-1.2-1.4-2.8-2.5-4.7-3.3
	c-1.9-0.8-4.3-1.3-7-1.3h-12.5v59.5h11.6C140.8,110.6,144.8,109.2,147.3,106.4z M132.1,59.1h3.5c2.8,0,4.8,0.7,5.9,2
	c1.1,1.3,1.6,3.3,1.6,6c0,2.7-0.5,4.8-1.5,6.2c-1,1.4-2.9,2.1-5.7,2.1h-3.8V59.1z M132.1,83h3.8c1.6,0,2.8,0.2,3.8,0.5
	c0.9,0.4,1.7,0.9,2.3,1.7c0.5,0.8,0.8,1.7,1,2.8c0.2,1.1,0.3,2.4,0.3,3.9c0,1.5-0.1,2.8-0.2,4c-0.1,1.2-0.4,2.3-0.9,3.2
	c-0.5,0.9-1.2,1.6-2.2,2.1c-1,0.5-2.3,0.8-4.1,0.8h-3.7V83z"/>
<path d="M226,110.6h-7.6c1.4,0.3,2.8,0.5,4.1,0.5C223.7,111.1,224.9,110.9,226,110.6z"/>
<path d="M227.8,110c1.6-0.8,3.1-1.8,4.3-3.1c1.2-1.3,2.2-2.7,2.9-4.4c0.7-1.6,1-3.4,1-5.2v-3.7h-8.5v2.9c0,1.2-0.2,2.1-0.5,2.9
	c-0.3,0.8-0.8,1.4-1.3,1.8c-0.6,0.4-1.2,0.8-1.8,1c-0.6,0.2-1.2,0.3-1.8,0.3c-2,0-3.3-0.6-4.1-1.8c-0.8-1.2-1.1-2.6-1.1-4.3V66
	c0-2,0.3-3.7,1-5c0.7-1.3,2.1-2,4.2-2c1.6,0,2.9,0.6,3.8,1.8c0.9,1.2,1.4,2.7,1.4,4.3v2.8h8.5v-3.3c0-2.1-0.3-4-1-5.7
	c-0.7-1.8-1.7-3.3-2.9-4.6c-2.5-2.6-5.8-3.9-9.8-3.9c-2.1,0-3.9,0.3-5.6,1c-1.7,0.7-3.2,1.7-4.4,2.9c-1.2,1.2-2.2,2.7-2.8,4.3
	c-0.7,1.7-1,3.5-1,5.4v32.8c0,2.7,0.4,5,1.3,6.7c0.9,1.8,2,3.2,3.3,4.3c1.3,1.1,2.8,1.9,4.5,2.3c0.3,0.1,0.5,0.1,0.8,0.2h7.6
	C226.6,110.4,227.2,110.2,227.8,110z"/>
<path d="M270.3,110.2c1.7-0.6,3.2-1.5,4.6-2.8c1.3-1.2,2.4-2.6,3.3-4.4c0.8-1.8,1.3-3.9,1.3-6.4V65.1c0-2.4-0.4-4.5-1.3-6.4
	c-0.8-1.8-1.9-3.4-3.3-4.6c-1.4-1.2-2.9-2.1-4.6-2.7c-1.7-0.6-3.4-0.9-5.1-0.9c-1.7,0-3.4,0.3-5.1,0.9c-1.7,0.6-3.2,1.5-4.6,2.7
	c-1.4,1.2-2.5,2.8-3.3,4.6c-0.8,1.8-1.3,4-1.3,6.4v31.4c0,2.5,0.4,4.7,1.3,6.4c0.8,1.8,2,3.3,3.3,4.4c1.3,1.2,2.9,2.1,4.6,2.8
	c0.5,0.2,1,0.3,1.4,0.4h7.4C269.3,110.5,269.8,110.4,270.3,110.2z M259.4,96.6V65.1c0-2.1,0.6-3.6,1.7-4.6c1.1-1,2.5-1.5,4.1-1.5
	c1.6,0,2.9,0.5,4.1,1.5c1.1,1,1.7,2.5,1.7,4.6v31.4c0,2.1-0.6,3.6-1.7,4.6c-1.1,1-2.5,1.5-4.1,1.5c-1.6,0-2.9-0.5-4.1-1.5
	C259.9,100.1,259.4,98.6,259.4,96.6z"/>
<path d="M268.8,110.6h-7.4c1.2,0.3,2.5,0.5,3.7,0.5C266.4,111.1,267.6,110.9,268.8,110.6z"/>
<path d="M74.5,155.7v-3c0-2.4-0.4-4.5-1.3-6.4c-0.8-1.8-1.9-3.4-3.3-4.6c-1.4-1.2-2.9-2.1-4.6-2.7c-1.7-0.6-3.4-0.9-5.1-0.9
	c-1.7,0-3.4,0.3-5.1,0.9c-1.7,0.6-3.2,1.5-4.6,2.7c-1.4,1.2-2.5,2.8-3.3,4.6c-0.8,1.8-1.3,4-1.3,6.4v31.4c0,2.5,0.4,4.7,1.3,6.4
	c0.8,1.8,2,3.3,3.3,4.4c1.3,1.2,2.9,2.1,4.6,2.8c1.7,0.6,3.4,0.9,5.1,0.9c1.7,0,3.4-0.3,5.1-0.9c1.7-0.6,3.2-1.5,4.6-2.8
	c1.3-1.2,2.4-2.6,3.3-4.4c0.8-1.8,1.3-3.9,1.3-6.4v-18.7H59.2v7.5H66v11.2c0,2.1-0.6,3.6-1.7,4.6c-1.1,1-2.5,1.5-4.1,1.5
	c-1.6,0-2.9-0.5-4.1-1.5c-1.1-1-1.7-2.5-1.7-4.6v-31.4c0-2.1,0.6-3.6,1.7-4.6c1.1-1,2.5-1.5,4.1-1.5c1.6,0,2.9,0.5,4.1,1.5
	c1.1,1,1.7,2.5,1.7,4.6v3H74.5z"/>
<path d="M118.5,155.7v-3c0-2.4-0.4-4.5-1.3-6.4c-0.8-1.8-1.9-3.4-3.3-4.6c-1.4-1.2-2.9-2.1-4.6-2.7c-1.7-0.6-3.4-0.9-5.1-0.9
	c-1.7,0-3.4,0.3-5.1,0.9c-1.7,0.6-3.2,1.5-4.6,2.7c-1.4,1.2-2.5,2.8-3.3,4.6c-0.8,1.8-1.3,4-1.3,6.4v31.4c0,2.5,0.4,4.7,1.3,6.4
	c0.8,1.8,2,3.3,3.3,4.4c1.3,1.2,2.9,2.1,4.6,2.8c1.7,0.6,3.4,0.9,5.1,0.9c1.7,0,3.4-0.3,5.1-0.9c1.7-0.6,3.2-1.5,4.6-2.8
	c1.3-1.2,2.4-2.6,3.3-4.4c0.8-1.8,1.3-3.9,1.3-6.4v-18.7h-15.3v7.5h6.8v11.2c0,2.1-0.6,3.6-1.7,4.6c-1.1,1-2.5,1.5-4.1,1.5
	c-1.6,0-2.9-0.5-4.1-1.5c-1.1-1-1.7-2.5-1.7-4.6v-31.4c0-2.1,0.6-3.6,1.7-4.6c1.1-1,2.5-1.5,4.1-1.5c1.6,0,2.9,0.5,4.1,1.5
	c1.1,1,1.7,2.5,1.7,4.6v3H118.5z"/>
<path d="M161.5,165.1c1.1-2.5,1.6-5.4,1.6-8.9c0-11.6-5-17.5-15.1-17.5h-13.7v59.5h8.5v-25.4h5.1l7.9,25.4h9l-9.2-27.2
	C158.5,169.5,160.4,167.6,161.5,165.1z M154.4,160c-0.2,1.1-0.5,2.1-0.9,2.9c-0.5,0.8-1.2,1.4-2.1,1.8c-0.9,0.4-2.1,0.6-3.6,0.6
	h-4.8v-18.6h4.4c3,0,5,0.8,6,2.3c0.5,0.8,0.8,1.8,1,3c0.2,1.1,0.3,2.5,0.3,4S154.5,158.8,154.4,160z"/>
<polygon points="203.8,146.7 203.8,138.7 178.3,138.7 178.3,198.2 203.8,198.2 203.8,189.7 186.9,189.7 186.9,172.2 201.6,172.2 
	201.6,164.2 186.9,164.2 186.9,146.7 "/>
<path d="M245.7,155.7v-3c0-2.4-0.4-4.5-1.3-6.4c-0.8-1.8-1.9-3.4-3.3-4.6c-1.4-1.2-2.9-2.1-4.6-2.7c-1.7-0.6-3.4-0.9-5.1-0.9
	c-1.7,0-3.4,0.3-5.1,0.9c-1.7,0.6-3.2,1.5-4.6,2.7c-1.4,1.2-2.5,2.8-3.3,4.6c-0.8,1.8-1.3,4-1.3,6.4v31.4c0,2.5,0.4,4.7,1.3,6.4
	c0.8,1.8,2,3.3,3.3,4.4c1.3,1.2,2.9,2.1,4.6,2.8c1.7,0.6,3.4,0.9,5.1,0.9c1.7,0,3.4-0.3,5.1-0.9c1.7-0.6,3.2-1.5,4.6-2.8
	c1.3-1.2,2.4-2.6,3.3-4.4c0.8-1.8,1.3-3.9,1.3-6.4v-18.7h-15.3v7.5h6.8v11.2c0,2.1-0.6,3.6-1.7,4.6c-1.1,1-2.5,1.5-4.1,1.5
	c-1.6,0-2.9-0.5-4.1-1.5c-1.1-1-1.7-2.5-1.7-4.6v-31.4c0-2.1,0.6-3.6,1.7-4.6c1.1-1,2.5-1.5,4.1-1.5c1.6,0,2.9,0.5,4.1,1.5
	c1.1,1,1.7,2.5,1.7,4.6v3H245.7z"/>
<polygon points="313.6,198.2 313.6,146.7 323.4,146.7 323.4,138.7 295.2,138.7 295.2,146.7 305,146.7 305,198.2 "/>
<polygon points="335.5,198.2 361,198.2 361,189.7 344.1,189.7 344.1,172.2 358.8,172.2 358.8,164.2 344.1,164.2 344.1,146.7 
	361,146.7 361,138.7 335.5,138.7 "/>
<path d="M90.6,248.4c0.5-0.6,0.8-1.5,0.8-2.8v-14.4c0-1.2-0.2-2.1-0.7-2.7c-0.5-0.6-1.3-1-2.6-1h-2v21.8h2
	C89.3,249.3,90.1,249,90.6,248.4z"/>
<path d="M0,264.1h361v-52H0V264.1z M324.9,247.2h6.1v6.1h-6.1V247.2z M302.3,223.4h6.3c2.5,0,4.3,0.7,5.6,2c1.3,1.3,1.9,3.2,1.9,5.7
	v14c0,2.8-0.7,4.9-2,6.2s-3.3,2-5.9,2h-6V223.4z M282,223.4h14.2v4h-5v25.9H287v-25.9h-5V223.4z M267.5,223.4h4.3v25.6h8.5v4.3
	h-12.8V223.4z M230.1,223.4h14.2v4h-5v25.9H235v-25.9h-5V223.4z M209.2,223.4h4.1l6.5,18h0.1v-18h4.3v29.9h-4l-6.6-18h-0.1v18h-4.3
	V223.4z M189.6,223.4h12.8v4h-8.5v8.8h7.4v4h-7.4v8.8h8.5v4.3h-12.8V223.4z M162.1,223.4h4.1l5.5,15.8h0.1l5.5-15.8h4.2v29.9h-4.3
	v-18.2H177l-4.2,12.9h-2.1l-4.2-12.9h-0.1v18.2h-4.3V223.4z M142.4,223.4h12.8v4h-8.5v8.8h7.4v4h-7.4v8.8h8.5v4.3h-12.8V223.4z
	 M120.8,230.1c0-1,0.2-1.9,0.5-2.7s0.8-1.6,1.4-2.2c0.6-0.6,1.4-1.1,2.2-1.4c0.9-0.3,1.8-0.5,2.8-0.5c2,0,3.7,0.7,4.9,2
	c0.6,0.6,1.1,1.4,1.4,2.3c0.4,0.9,0.5,1.8,0.5,2.9v1.7h-4.3v-1.4c0-0.8-0.2-1.6-0.7-2.2c-0.5-0.6-1.1-0.9-1.9-0.9
	c-1.1,0-1.8,0.3-2.1,1c-0.4,0.7-0.5,1.5-0.5,2.5v15.3c0,0.9,0.2,1.6,0.6,2.2s1.1,0.9,2,0.9c0.3,0,0.6,0,0.9-0.1s0.6-0.3,0.9-0.5
	c0.3-0.2,0.5-0.5,0.6-0.9c0.2-0.4,0.3-0.9,0.3-1.5v-1.5h4.3v1.8c0,0.9-0.2,1.8-0.5,2.6c-0.3,0.8-0.8,1.6-1.4,2.2
	c-0.6,0.6-1.3,1.2-2.2,1.5c-0.8,0.4-1.7,0.6-2.7,0.6c-0.8,0-1.6-0.1-2.5-0.3c-0.8-0.2-1.6-0.6-2.3-1.2c-0.7-0.6-1.2-1.3-1.7-2.2
	c-0.4-0.9-0.7-2-0.7-3.4V230.1z M81.8,223.4h6.3c2.5,0,4.3,0.7,5.6,2c1.3,1.3,1.9,3.2,1.9,5.7v14c0,2.8-0.7,4.9-2,6.2s-3.3,2-5.9,2
	h-6V223.4z M58.8,223.4h4.1l6.5,18h0.1v-18h4.3v29.9h-4l-6.6-18h-0.1v18h-4.3V223.4z M42.4,223.4H46l6.7,29.9h-4.3l-1.3-6.4h-5.8
	l-1.3,6.4h-4.3L42.4,223.4z"/>
<polygon points="44.2,232 44.1,232 42,242.9 46.3,242.9 "/>
<path d="M311.1,248.4c0.5-0.6,0.8-1.5,0.8-2.8v-14.4c0-1.2-0.2-2.1-0.7-2.7c-0.5-0.6-1.3-1-2.6-1h-2v21.8h2
	C309.8,249.3,310.6,249,311.1,248.4z"/>
<polygon class="st3" points="98.9,110.7 106.7,110.7 106.7,110.6 98.9,110.6 "/>
<polygon class="st3" points="84,110.7 84,110.6 76.3,110.6 76.2,110.7 "/>
<path class="st3" d="M84,100.8c0,0,6.2-30.9,14.9,0v9.8h7.7l-7.1-60.5H82.4l-6.1,60.5H84V100.8z M87.9,71.7c0,0,2.9-14.7,7.1,0v4.7
	h-7.1V71.7z"/>
<rect x="79.5" y="34.8" width="23" height="3.6"/>
<polygon points="80.9,50.8 81.2,48.8 101.2,48.8 101.5,50.8 103,50.8 103,39.4 79,39.4 79,50.8 "/>
<rect x="81.7" y="20.6" width="18.6" height="13.2"/>
<polygon points="80.2,19.6 91,10.6 101.8,19.6 "/>
<line class="st4" x1="91" y1="11" x2="91" y2="0"/>
<line class="st5" x1="86" y1="4.7" x2="95.5" y2="4.7"/>
<polygon points="97.4,4.7 95.5,5.6 95.5,3.8 "/>
<polyline points="86.6,4.5 86.3,3.5 81.9,3.5 82.7,4.7 81.9,5.8 86.2,5.8 86.6,4.9 "/>
</svg>
