<?xml version="1.0" encoding="utf-8"?>
<!-- Generator: Adobe Illustrator 24.3.0, SVG Export Plug-In . SVG Version: 6.00 Build 0)  -->
<svg version="1.1" id="Layer_1" xmlns="http://www.w3.org/2000/svg" xmlns:xlink="http://www.w3.org/1999/xlink" x="0px" y="0px"
	 viewBox="0 0 512 512" style="enable-background:new 0 0 512 512;" xml:space="preserve">
<style type="text/css">
	.st0{fill:none;stroke:#000000;stroke-width:0.5;stroke-miterlimit:10;}
</style>
<g>
	<rect x="140.1" y="350.7" width="231.8" height="36.3"/>
	<polygon points="154.2,512 157.2,491.8 358.8,491.8 361.8,512 376.9,512 376.9,397.1 135.1,397.1 135.1,512 	"/>
	<rect x="162.3" y="207.6" width="187.5" height="133"/>
	<polygon points="147.1,197.5 256,106.8 364.9,197.5 	"/>
	<line class="st0" x1="256" y1="110.9" x2="256" y2="0"/>
	<line class="st0" x1="205.6" y1="47.4" x2="301.4" y2="47.4"/>
	<polygon points="320.5,47.4 301.4,56.4 301.4,38.3 	"/>
	<polyline points="211.7,45.4 208.6,35.3 164.3,35.3 172.3,47.4 164.3,58.5 207.6,58.5 211.7,49.4 	"/>
</g>
</svg>
